Coordinates
version=1
nRows=5
nColumns=40
inDegrees=yes

Units are S.I. units (second, meters, Newtons, ...)
Angles are in degrees.

endheader
time	pelvis_tilt	pelvis_list	pelvis_rotation	pelvis_tx	pelvis_ty	pelvis_tz	hip_flexion_r	hip_adduction_r	hip_rotation_r	knee_angle_r	knee_angle_r_beta	ankle_angle_r	subtalar_angle_r	mtp_angle_r	hip_flexion_l	hip_adduction_l	hip_rotation_l	knee_angle_l	knee_angle_l_beta	ankle_angle_l	subtalar_angle_l	mtp_angle_l	lumbar_extension	lumbar_bending	lumbar_rotation	arm_flex_r	arm_add_r	arm_rot_r	elbow_flex_r	pro_sup_r	wrist_flex_r	wrist_dev_r	arm_flex_l	arm_add_l	arm_rot_l	elbow_flex_l	pro_sup_l	wrist_flex_l	wrist_dev_l
     56.55500000	     -5.19183546	     -4.23547111	      4.07370158	      1.05269515	      0.91611116	      0.45651168	      1.61690817	     -0.58874247	    -13.41488524	     28.58373627	     28.58373627	     17.07465704	     -4.17761741	     -7.49799711	     29.74186827	     -4.39853061	     -3.65151270	     24.91895647	     24.91895647	      4.33315007	    -13.49785035	      1.89484573	     -7.73763000	      4.35455595	      3.73092690	     38.04036024	    -17.99440279	     -1.00725509	    115.58213843	     44.05177103	      0.00000000	      0.00000000	    -13.23506920	    -11.81365646	     26.60898841	     34.37208739	     43.51143008	      0.00000000	      0.00000000
     56.56685714	     -5.23595404	     -4.08089580	      3.82520335	      1.05289132	      0.91741896	      0.45481883	      3.10966163	     -1.29961001	    -13.11645770	     31.98975642	     31.98975642	     15.60990549	     -5.70196680	     -8.51109790	     29.07173727	     -4.29059092	     -4.03356569	     24.72488777	     24.72488777	      4.96247291	    -13.18088725	      1.56410274	     -7.70231224	      4.10821525	      3.65083787	     36.14202116	    -17.90876918	     -0.99320026	    115.09687691	     44.06692057	      0.00000000	      0.00000000	    -11.84344236	    -11.98669595	     26.31370344	     34.41502499	     43.58376964	      0.00000000	      0.00000000
     56.57871429	     -5.26687411	     -3.94904830	      3.58548251	      1.05293066	      0.91867683	      0.45326009	      4.75886901	     -1.96468702	    -12.77570345	     35.57420923	     35.57420923	     13.88372864	     -7.44647032	     -9.45907892	     28.36638913	     -4.21976753	     -4.51378884	     24.46264061	     24.46264061	      5.49582209	    -12.80230823	      1.17528338	     -7.66491862	      3.89312099	      3.59124136	     34.14098692	    -17.82790435	     -1.01404945	    114.45219979	     44.08820884	      0.00000000	      0.00000000	    -10.36100210	    -12.18299435	     25.93652981	     34.43911512	     43.66851004	      0.00000000	      0.00000000
     56.59057143	     -5.20345778	     -3.76132878	      3.32582501	      1.05291474	      0.91991317	      0.45187052	      6.43314604	     -2.70619457	    -12.51669688	     39.29310673	     39.29310673	     12.12502690	     -9.13679757	     -9.96764758	     27.57103657	     -4.11835727	     -5.06984803	     24.22958311	     24.22958311	      5.97566531	    -12.44034747	      0.76729985	     -7.73415663	      3.62087247	      3.43414412	     32.10015217	    -17.57246690	     -0.84238281	    113.65388378	     44.10491126	      0.00000000	      0.00000000	     -8.77642426	    -12.45296052	     25.55871535	     34.56724187	     43.74887951	      0.00000000	      0.00000000
     56.60242857	     -5.21248220	     -3.56966051	      3.07371757	      1.05261696	      0.92090013	      0.45060024	      8.37516247	     -3.43001976	    -12.16563404	     43.17212200	     43.17212200	     10.30615838	    -10.98577620	    -10.15252972	     26.84751697	     -4.00791197	     -5.61421112	     23.93004132	     23.93004132	      6.38982361	    -11.96660914	      0.30269736	     -7.77371265	      3.32483229	      3.28661260	     30.00726923	    -17.37307476	     -0.68283531	    112.60808820	     44.12929190	      0.00000000	      0.00000000	     -7.15657050	    -12.74265529	     25.13824715	     34.70535012	     43.83433687	      0.00000000	      0.00000000
